<svg width="100" height="48" viewBox="0 0 100 48" fill="none" xmlns="http://www.w3.org/2000/svg">
<rect width="100" height="48" rx="24" fill="black"/>
<path d="M27.0686 30H24.4322L28.4493 18.3636H31.6197L35.6311 30H32.9947L30.08 21.0227H29.9891L27.0686 30ZM26.9038 25.4261H33.1311V27.3466H26.9038V25.4261ZM40.6232 30.1705C39.7292 30.1705 38.9603 29.9811 38.3163 29.6023C37.6762 29.2197 37.1838 28.6894 36.8391 28.0114C36.4982 27.3333 36.3277 26.553 36.3277 25.6705C36.3277 24.7765 36.5 23.9924 36.8447 23.3182C37.1932 22.6402 37.6875 22.1117 38.3277 21.733C38.9679 21.3504 39.7292 21.1591 40.6118 21.1591C41.3732 21.1591 42.0398 21.2973 42.6118 21.5739C43.1838 21.8504 43.6364 22.2386 43.9697 22.7386C44.3031 23.2386 44.4868 23.8258 44.5209 24.5H42.2368C42.1724 24.0644 42.0019 23.714 41.7254 23.4489C41.4527 23.1799 41.0947 23.0455 40.6516 23.0455C40.2766 23.0455 39.9489 23.1477 39.6686 23.3523C39.3921 23.553 39.1762 23.8466 39.0209 24.233C38.8656 24.6193 38.7879 25.0871 38.7879 25.6364C38.7879 26.1932 38.8637 26.6667 39.0152 27.0568C39.1705 27.447 39.3883 27.7443 39.6686 27.9489C39.9489 28.1534 40.2766 28.2557 40.6516 28.2557C40.9281 28.2557 41.1762 28.1989 41.3959 28.0852C41.6194 27.9716 41.8031 27.8068 41.947 27.5909C42.0947 27.3712 42.1913 27.108 42.2368 26.8011H44.5209C44.483 27.4678 44.3012 28.0549 43.9754 28.5625C43.6535 29.0663 43.2084 29.4602 42.6402 29.7443C42.072 30.0284 41.3997 30.1705 40.6232 30.1705ZM50.8126 21.2727V23.0909H45.557V21.2727H50.8126ZM46.7501 19.1818H49.1706V27.3182C49.1706 27.5417 49.2047 27.7159 49.2729 27.8409C49.3411 27.9621 49.4357 28.0473 49.557 28.0966C49.682 28.1458 49.8259 28.1705 49.9888 28.1705C50.1024 28.1705 50.2161 28.161 50.3297 28.142C50.4433 28.1193 50.5304 28.1023 50.5911 28.0909L50.9717 29.892C50.8505 29.9299 50.6801 29.9735 50.4604 30.0227C50.2407 30.0758 49.9736 30.108 49.6592 30.1193C49.0759 30.142 48.5645 30.0644 48.1251 29.8864C47.6895 29.7083 47.3505 29.4318 47.1081 29.0568C46.8657 28.6818 46.7464 28.2083 46.7501 27.6364V19.1818ZM52.4893 30V21.2727H54.9098V30H52.4893ZM53.7053 20.1477C53.3454 20.1477 53.0367 20.0284 52.7791 19.7898C52.5253 19.5473 52.3984 19.2576 52.3984 18.9205C52.3984 18.5871 52.5253 18.3011 52.7791 18.0625C53.0367 17.8201 53.3454 17.6989 53.7053 17.6989C54.0651 17.6989 54.3719 17.8201 54.6257 18.0625C54.8833 18.3011 55.0121 18.5871 55.0121 18.9205C55.0121 19.2576 54.8833 19.5473 54.6257 19.7898C54.3719 20.0284 54.0651 20.1477 53.7053 20.1477ZM60.8919 30.1705C60.0093 30.1705 59.2461 29.983 58.6021 29.608C57.962 29.2292 57.4677 28.7027 57.1192 28.0284C56.7707 27.3504 56.5964 26.5644 56.5964 25.6705C56.5964 24.7689 56.7707 23.9811 57.1192 23.3068C57.4677 22.6288 57.962 22.1023 58.6021 21.7273C59.2461 21.3485 60.0093 21.1591 60.8919 21.1591C61.7745 21.1591 62.5358 21.3485 63.176 21.7273C63.8199 22.1023 64.3161 22.6288 64.6646 23.3068C65.0131 23.9811 65.1874 24.7689 65.1874 25.6705C65.1874 26.5644 65.0131 27.3504 64.6646 28.0284C64.3161 28.7027 63.8199 29.2292 63.176 29.608C62.5358 29.983 61.7745 30.1705 60.8919 30.1705ZM60.9033 28.2955C61.3048 28.2955 61.64 28.1818 61.9089 27.9545C62.1779 27.7235 62.3805 27.4091 62.5169 27.0114C62.6571 26.6136 62.7271 26.161 62.7271 25.6534C62.7271 25.1458 62.6571 24.6932 62.5169 24.2955C62.3805 23.8977 62.1779 23.5833 61.9089 23.3523C61.64 23.1212 61.3048 23.0057 60.9033 23.0057C60.498 23.0057 60.1571 23.1212 59.8805 23.3523C59.6078 23.5833 59.4014 23.8977 59.2612 24.2955C59.1249 24.6932 59.0567 25.1458 59.0567 25.6534C59.0567 26.161 59.1249 26.6136 59.2612 27.0114C59.4014 27.4091 59.6078 27.7235 59.8805 27.9545C60.1571 28.1818 60.498 28.2955 60.9033 28.2955ZM69.2817 24.9545V30H66.8612V21.2727H69.168V22.8125H69.2703C69.4635 22.3049 69.7874 21.9034 70.2419 21.608C70.6964 21.3087 71.2476 21.1591 71.8953 21.1591C72.5014 21.1591 73.0298 21.2917 73.4805 21.5568C73.9313 21.822 74.2817 22.2008 74.5317 22.6932C74.7817 23.1818 74.9067 23.7652 74.9067 24.4432V30H72.4862V24.875C72.49 24.3409 72.3536 23.9242 72.0771 23.625C71.8006 23.322 71.4199 23.1705 70.9351 23.1705C70.6093 23.1705 70.3214 23.2405 70.0714 23.3807C69.8252 23.5208 69.6321 23.7254 69.4919 23.9943C69.3555 24.2595 69.2855 24.5795 69.2817 24.9545Z" fill="#F3F3F3"/>
</svg>
